:SAMPLES-PER-SECOND 30
:FRAME-RANGE 1-3549
:FULLY-SPECIFIED
:DEGREES
1775
root  -59.7307 38.8376 10.4162 -168.797 -62.425 172.405
RightUpLeg  -27.1401 0.672248 -2.18334
RightLeg  50.6683 -6.30863 -8.529
RightFoot  -6.92498 -0.234585 4.85844
RightToes  1.218e-010 1.26228e-014 -6.01869e-014
Spine  -2.28346 -0.828968 -8.79283
Spine1  8.30868 -0.0100833 -2.99989
HEad  32.0251 -1.60514 1.37748
LeftShoulder1  1.15224 -1.79031 -16.1051
LeftArm  -4.46102 -9.71392 -44.1807
LeftForeArm  33.8536 -1.6968 -10.9342
LeftHand  -0.0321238 5.18772 5.49986
RightShoulder  1.51647 2.07896 21.9007
RightArm  11.4738 7.56707 46.9267
RightForeArm  41.9448 18.1798 6.47699
RightHand  0.0200602 -5.68868 -14.2646
LeftUpLeg  -13.9234 2.61442 -3.2469
LeftLeg  19.5172 -4.48479 -1.7798
LeftFoot  -11.7944 0.0547126 -4.03788
LeftToes  -1.43952e-010 7.51141e-011 -1.22592e-011
1776
root  -60.7048 38.8886 10.0794 -169.009 -61.8558 172.689
RightUpLeg  -27.7874 0.975577 -1.03064
RightLeg  42.3665 -8.52472 -8.51308
RightFoot  -6.56865 -0.231787 4.48668
RightToes  1.218e-010 1.26228e-014 -6.01869e-014
Spine  -2.55798 -1.12324 -8.63348
Spine1  7.77796 -0.142588 -3.03094
HEad  31.4996 -2.30463 1.0079
LeftShoulder1  1.27511 -2.64867 -14.8004
LeftArm  -5.87768 -12.7333 -43.8115
LeftForeArm  33.7686 -2.74004 -10.4567
LeftHand  -0.0380032 5.0547 5.60332
RightShoulder  1.5048 2.11273 21.4833
RightArm  16.9346 8.35922 47.5503
RightForeArm  36.6911 20.6614 4.74965
RightHand  0.00745752 -5.59426 -13.8125
LeftUpLeg  -11.7983 3.17458 -3.2586
LeftLeg  18.7225 -4.39223 -1.94261
LeftFoot  -12.8935 0.0306231 -3.44344
LeftToes  -1.43952e-010 7.51141e-011 -1.22592e-011
1777
root  -61.6892 38.9315 9.69319 -169.289 -61.1969 173.038
RightUpLeg  -27.4275 1.98018 0.0744167
RightLeg  32.6085 -11.1984 -7.8493
RightFoot  -6.72614 -0.244007 4.91587
RightToes  1.218e-010 1.26228e-014 -6.01869e-014
Spine  -2.84255 -1.45454 -8.52848
Spine1  7.33205 -0.391413 -2.82058
HEad  30.8139 -3.40672 0.326347
LeftShoulder1  1.29613 -3.09105 -13.5353
LeftArm  -7.12758 -14.2952 -43.4072
LeftForeArm  33.431 -5.1498 -9.99019
LeftHand  -0.04705 4.868 5.85954
RightShoulder  1.48059 2.09542 21.0969
RightArm  20.0189 8.53506 48.353
RightForeArm  34.6752 22.5215 3.65059
RightHand  0.0159612 -5.67992 -13.404
LeftUpLeg  -9.45197 3.43585 -3.24149
LeftLeg  17.5787 -4.04261 -1.86216
LeftFoot  -13.8505 0.015019 -3.10441
LeftToes  -1.43952e-010 7.51141e-011 -1.22592e-011
1778
root  -62.7115 38.9177 9.25362 -169.38 -60.4333 173.243
RightUpLeg  -26.266 2.26407 1.23803
RightLeg  21.7366 -13.4283 -6.01998
RightFoot  -6.78139 -0.224655 4.48106
RightToes  1.218e-010 1.26228e-014 -6.01869e-014
Spine  -3.24949 -1.77396 -8.29672
Spine1  6.9269 -0.599864 -2.80562
HEad  30.1582 -4.98819 -0.472111
LeftShoulder1  1.26935 -3.11586 -12.9891
LeftArm  -6.13365 -15.1739 -42.4589
LeftForeArm  31.5469 -8.58231 -9.50143
LeftHand  -0.0595312 4.63526 6.18429
RightShoulder  1.46531 2.0318 21.1379
RightArm  21.822 8.11291 48.7796
RightForeArm  34.0873 23.7462 3.35029
RightHand  0.0190873 -5.72054 -13.0334
LeftUpLeg  -7.09851 3.49382 -3.41226
LeftLeg  16.4439 -3.29156 -1.54429
LeftFoot  -14.8272 0.00761196 -2.67034
LeftToes  -1.43952e-010 7.51141e-011 -1.22592e-011
1779
root  -63.7891 38.8598 8.7497 -169.005 -59.8074 172.983
RightUpLeg  -24.6373 0.750429 2.65125
RightLeg  10.7577 -14.3561 -3.09557
RightFoot  -6.19381 -0.228617 4.14597
RightToes  1.218e-010 1.26228e-014 -6.01869e-014
Spine  -4.0362 -2.05595 -8.1158
Spine1  6.95271 -0.77237 -2.80912
HEad  29.6332 -7.37363 -1.0914
LeftShoulder1  1.25811 -3.04193 -13.0476
LeftArm  -3.24079 -15.5901 -41.3926
LeftForeArm  28.0579 -12.3268 -8.50667
LeftHand  -0.0815164 4.26772 6.64954
RightShoulder  1.41313 1.8193 21.2575
RightArm  22.1951 6.74462 49.1184
RightForeArm  34.8006 24.57 3.43685
RightHand  0.0181888 -5.72647 -12.6416
LeftUpLeg  -4.70556 3.42677 -3.79537
LeftLeg  15.3535 -2.64594 -1.25011
LeftFoot  -15.8644 -0.00139226 -2.44313
LeftToes  -1.43952e-010 7.51141e-011 -1.22592e-011
1780
root  -64.8956 38.7062 8.21158 -168.163 -59.0678 172.215
RightUpLeg  -23.2265 2.83764 1.90413
RightLeg  1.57928 -19.4434 0.832843
RightFoot  -5.84278 -0.254845 4.47587
RightToes  1.218e-010 1.26228e-014 -6.01869e-014
Spine  -4.87048 -2.22635 -7.87566
Spine1  6.96956 -0.801289 -3.02505
HEad  29.2182 -9.73802 -1.63763
LeftShoulder1  1.23006 -2.83192 -13.2909
LeftArm  0.477196 -15.492 -40.6097
LeftForeArm  23.5361 -15.8372 -7.07662
LeftHand  -0.100369 3.99083 7.028
RightShoulder  1.34224 1.53828 21.3906
RightArm  23.0359 4.96457 49.6231
RightForeArm  34.4823 24.1258 3.36175
RightHand  0.0109942 -5.66699 -12.3769
LeftUpLeg  -2.53486 3.40903 -4.42776
LeftLeg  14.8315 -1.96176 -1.11309
LeftFoot  -17.2932 -0.0124834 -2.2342
LeftToes  -1.43952e-010 7.51141e-011 -1.22592e-011
1781
root  -66.0247 38.479 7.60473 -167.365 -58.552 171.238
RightUpLeg  -22.504 3.9912 2.04801
RightLeg  -3.51245 -23.7452 2.73167
RightFoot  -6.27567 -0.246044 4.59365
RightToes  1.218e-010 1.26228e-014 -6.01869e-014
Spine  -5.43797 -2.34516 -7.85667
Spine1  7.0136 -0.890613 -2.92554
HEad  28.5955 -11.8932 -2.02473
LeftShoulder1  1.20125 -2.60634 -13.5959
LeftArm  3.4638 -14.7928 -40.2932
LeftForeArm  20.6192 -18.5611 -5.71268
LeftHand  -0.115344 3.76431 7.20033
RightShoulder  1.27428 1.2517 21.645
RightArm  23.2482 2.56469 49.8981
RightForeArm  35.0917 23.085 3.43066
RightHand  0.0104261 -5.67695 -11.9203
LeftUpLeg  -0.498618 3.64029 -4.98396
LeftLeg  15.2705 -1.92526 -1.25118
LeftFoot  -18.8416 -0.0359043 -2.27115
LeftToes  -1.43952e-010 7.51141e-011 -1.22592e-011
1782
root  -67.1928 38.2126 6.96697 -166.914 -58.0201 170.447
RightUpLeg  -22.1253 4.30242 2.63539
RightLeg  -3.63345 -27.363 3.16156
RightFoot  -7.51553 -0.221782 5.10586
RightToes  1.218e-010 1.26228e-014 -6.01869e-014
Spine  -5.73411 -2.35792 -7.55587
Spine1  7.21008 -1.00258 -2.75258
HEad  27.4702 -13.2783 -2.40957
LeftShoulder1  1.18189 -2.35132 -14.2261
LeftArm  5.83873 -13.3265 -40.1438
LeftForeArm  18.8851 -20.7755 -4.67441
LeftHand  -0.111118 3.93554 7.68155
RightShoulder  1.2101 0.963662 22.0392
RightArm  19.8547 0.248515 49.9777
RightForeArm  39.4031 20.2777 5.10266
RightHand  0.0394905 -5.92676 -12.6613
LeftUpLeg  1.34032 4.3229 -5.35584
LeftLeg  16.6387 -2.33959 -1.49643
LeftFoot  -20.1904 -0.0618932 -2.36455
LeftToes  -1.43952e-010 7.51141e-011 -1.22592e-011
1783
root  -68.3695 38.0676 6.31098 -167.758 -57.5026 171.045
RightUpLeg  -21.6029 4.29226 3.8599
RightLeg  -0.775187 -28.3297 2.60084
RightFoot  -6.07923 -0.0447685 0.0764124
RightToes  1.218e-010 1.26228e-014 -6.01869e-014
Spine  -6.12258 -2.25984 -6.01285
Spine1  7.95811 -1.16973 -2.53688
HEad  26.0836 -13.64 -2.94682
LeftShoulder1  1.18054 -2.10101 -15.2585
LeftArm  7.01079 -10.8647 -40.0809
LeftForeArm  19.2926 -22.5934 -4.08317
LeftHand  -0.100211 4.11068 7.67364
RightShoulder  1.1357 0.648133 22.4254
RightArm  8.11097 -1.52003 49.6681
RightForeArm  51.3609 14.4234 9.16385
RightHand  0.079894 -6.24862 -13.3933
LeftUpLeg  3.03077 5.92825 -4.78459
LeftLeg  18.5097 -3.7742 -1.78127
LeftFoot  -20.431 -0.130374 -3.18086
LeftToes  -1.43952e-010 7.51141e-011 -1.22592e-011
1784
root  -69.5266 38.1256 5.60192 -169.554 -57.3999 172.792
RightUpLeg  -21.2042 5.09076 5.63896
RightLeg  2.27413 -28.7881 0.27252
RightFoot  -1.77058 0.443003 -5.42686
RightToes  1.218e-010 1.26228e-014 -6.01869e-014
Spine  -6.67158 -2.18175 -3.71858
Spine1  9.13652 -1.61964 -1.57175
HEad  24.9109 -13.5166 -3.50547
LeftShoulder1  1.13965 -1.60576 -16.7506
LeftArm  8.61538 -8.04001 -40.0933
LeftForeArm  20.325 -23.3898 -3.9823
LeftHand  -0.089212 4.28848 7.67141
RightShoulder  1.00088 0.126838 22.8493
RightArm  -7.4552 -3.47188 49.0389
RightForeArm  65.9245 6.33178 11.19
RightHand  0.127857 -6.5934 -14.1777
LeftUpLeg  4.03585 8.19449 -2.99912
LeftLeg  21.498 -6.61658 -2.52829
LeftFoot  -18.5576 -0.237599 -5.52796
LeftToes  -1.43952e-010 7.51141e-011 -1.22592e-011
1785
root  -70.6498 38.1506 4.8239 -172.113 -56.9602 175.269
RightUpLeg  -21.3016 4.52705 7.18329
RightLeg  7.76525 -27.8036 -1.49283
RightFoot  -0.53901 0.615793 -6.53893
RightToes  1.218e-010 1.26228e-014 -6.01869e-014
Spine  -6.25082 -2.043 -1.15487
Spine1  8.86007 -1.79966 -0.938638
HEad  24.9371 -14.0367 -3.62872
LeftShoulder1  0.96078 -0.602361 -18.2432
LeftArm  11.1499 -5.3293 -40.7962
LeftForeArm  20.9954 -22.243 -4.10334
LeftHand  -0.0773792 4.46905 7.57428
RightShoulder  0.847138 -0.546276 24.4213
RightArm  -14.2426 -4.95744 47.5985
RightForeArm  69.6991 -1.18893 9.52774
RightHand  0.213397 -7.14566 -15.349
LeftUpLeg  2.87533 9.72398 0.0295533
LeftLeg  28.9411 -9.68917 -5.41896
LeftFoot  -14.5793 -0.199922 -10.1358
LeftToes  -1.43952e-010 7.51141e-011 -1.22592e-011
1786
root  -71.655 38.1091 4.04605 -174.263 -54.6577 177.99
RightUpLeg  -20.8059 3.01839 9.55824
RightLeg  11.148 -23.7784 -1.63537
RightFoot  -2.62996 0.513165 -6.95644
RightToes  1.218e-010 1.26228e-014 -6.01869e-014
Spine  -6.11377 -1.41051 1.24311
Spine1  8.51577 -1.22602 -0.40885
HEad  24.6688 -15.12 -3.64517
LeftShoulder1  0.774761 0.203344 -18.6595
LeftArm  10.2912 -1.35947 -42.7883
LeftForeArm  23.6367 -20.1836 -4.88873
LeftHand  -0.064107 4.64396 7.09701
RightShoulder  0.867122 -0.531716 25.0164
RightArm  -20.2995 -6.29369 47.2191
RightForeArm  72.4936 -5.68925 6.45004
RightHand  0.236106 -7.21977 -16.1033
LeftUpLeg  -1.02312 11.2293 3.22053
LeftLeg  39.3482 -11.5463 -9.62388
LeftFoot  -7.30108 0.658009 -17.3078
LeftToes  -1.43952e-010 7.51141e-011 -1.22592e-011
